<?xml version="1.0" encoding="UTF-8" standalone="no"?>
<!-- Uploaded to: SVG Repo, www.svgrepo.com, Generator: SVG Repo Mixer Tools -->

<svg
   width="48"
   height="48"
   fill="none"
   version="1.1"
   id="svg4"
   sodipodi:docname="rust.svg"
   inkscape:version="1.1.2 (0a00cf5339, 2022-02-04)"
   xmlns:inkscape="http://www.inkscape.org/namespaces/inkscape"
   xmlns:sodipodi="http://sodipodi.sourceforge.net/DTD/sodipodi-0.dtd"
   xmlns="http://www.w3.org/2000/svg"
   xmlns:svg="http://www.w3.org/2000/svg">
  <defs
     id="defs8" />
  <sodipodi:namedview
     id="namedview6"
     pagecolor="#ffffff"
     bordercolor="#666666"
     borderopacity="1.0"
     inkscape:pageshadow="2"
     inkscape:pageopacity="0.0"
     inkscape:pagecheckerboard="0"
     showgrid="false"
     inkscape:zoom="13.416667"
     inkscape:cx="24"
     inkscape:cy="24"
     inkscape:window-width="1920"
     inkscape:window-height="1001"
     inkscape:window-x="0"
     inkscape:window-y="0"
     inkscape:window-maximized="1"
     inkscape:current-layer="svg4" />
  <path
     d="m 39.781,23.607948 -1.343,-0.832 a 18.57,18.57 0 0 0 -0.038,-0.391 l 1.154,-1.077 a 0.46,0.46 0 0 0 -0.153,-0.771 l -1.476,-0.552 a 16.798,16.798 0 0 0 -0.115,-0.381 l 0.92,-1.279 a 0.462,0.462 0 0 0 -0.3,-0.727 l -1.557,-0.253 c -0.06,-0.118 -0.123,-0.234 -0.187,-0.35 l 0.654,-1.435 a 0.46,0.46 0 0 0 -0.437,-0.654 l -1.579,0.055 a 12.482,12.482 0 0 0 -0.25,-0.302 l 0.363,-1.539 a 0.461,0.461 0 0 0 -0.556,-0.556 l -1.538,0.362 c -0.1,-0.084 -0.2,-0.167 -0.303,-0.25 l 0.055,-1.578 a 0.46,0.46 0 0 0 -0.654,-0.437 l -1.435,0.654 a 16.712,16.712 0 0 0 -0.35,-0.188 L 30.403,9.5709484 a 0.462,0.462 0 0 0 -0.726,-0.301 l -1.28,0.9199996 a 14.31,14.31 0 0 0 -0.38,-0.115 L 27.465,8.5989484 a 0.461,0.461 0 0 0 -0.771,-0.154 l -1.077,1.156 c -0.13,-0.014 -0.26,-0.028 -0.391,-0.038 l -0.832,-1.344 a 0.462,0.462 0 0 0 -0.786,0 l -0.832,1.344 c -0.13,0.01 -0.261,0.024 -0.391,0.038 l -1.077,-1.155 a 0.464,0.464 0 0 0 -0.771,0.153 l -0.552,1.4759996 c -0.128,0.037 -0.255,0.076 -0.38,0.116 l -1.28,-0.9209996 a 0.46,0.46 0 0 0 -0.727,0.3 l -0.254,1.5569996 c -0.117,0.061 -0.233,0.124 -0.35,0.188 l -1.434,-0.654 a 0.46,0.46 0 0 0 -0.654,0.436 l 0.055,1.58 c -0.102,0.082 -0.203,0.165 -0.303,0.25 l -1.538,-0.363 a 0.464,0.464 0 0 0 -0.557,0.556 l 0.363,1.539 c -0.085,0.1 -0.168,0.2 -0.25,0.302 l -1.579,-0.055 a 0.462,0.462 0 0 0 -0.437,0.654 l 0.654,1.436 c -0.063,0.115 -0.126,0.231 -0.187,0.35 l -1.556,0.252 a 0.462,0.462 0 0 0 -0.301,0.727 l 0.92,1.279 c -0.04,0.126 -0.078,0.253 -0.115,0.38 l -1.476,0.553 a 0.462,0.462 0 0 0 -0.153,0.771 l 1.155,1.077 c -0.015,0.13 -0.028,0.26 -0.039,0.391 l -1.343,0.832 a 0.462,0.462 0 0 0 0,0.786 l 1.343,0.831 c 0.011,0.131 0.024,0.262 0.039,0.392 l -1.155,1.077 a 0.462,0.462 0 0 0 0.153,0.771 l 1.476,0.552 c 0.037,0.128 0.076,0.255 0.116,0.38 l -0.921,1.28 a 0.462,0.462 0 0 0 0.301,0.726 l 1.556,0.253 c 0.061,0.118 0.123,0.235 0.188,0.35 l -0.655,1.435 a 0.462,0.462 0 0 0 0.437,0.654 l 1.579,-0.055 c 0.082,0.103 0.165,0.203 0.25,0.303 l -0.363,1.539 a 0.46,0.46 0 0 0 0.557,0.555 l 1.538,-0.362 c 0.1,0.085 0.201,0.167 0.303,0.249 l -0.055,1.58 a 0.461,0.461 0 0 0 0.654,0.436 l 1.435,-0.654 c 0.115,0.064 0.232,0.127 0.35,0.188 l 0.253,1.555 a 0.461,0.461 0 0 0 0.727,0.302 l 1.279,-0.922 c 0.126,0.04 0.253,0.08 0.38,0.116 l 0.552,1.476 a 0.46,0.46 0 0 0 0.771,0.153 l 1.078,-1.155 c 0.13,0.015 0.26,0.028 0.391,0.04 l 0.832,1.343 a 0.463,0.463 0 0 0 0.786,0 l 0.831,-1.344 c 0.131,-0.011 0.262,-0.024 0.392,-0.039 l 1.077,1.155 a 0.46,0.46 0 0 0 0.77,-0.153 l 0.553,-1.476 c 0.127,-0.036 0.254,-0.076 0.38,-0.116 l 1.28,0.922 a 0.463,0.463 0 0 0 0.726,-0.302 l 0.254,-1.556 c 0.117,-0.06 0.233,-0.124 0.349,-0.187 l 1.435,0.654 a 0.461,0.461 0 0 0 0.654,-0.437 l -0.055,-1.58 c 0.102,-0.08 0.203,-0.163 0.303,-0.248 l 1.538,0.362 a 0.46,0.46 0 0 0 0.556,-0.555 l -0.362,-1.539 c 0.084,-0.1 0.167,-0.2 0.249,-0.303 l 1.58,0.055 a 0.46,0.46 0 0 0 0.436,-0.654 l -0.654,-1.435 c 0.064,-0.115 0.126,-0.232 0.187,-0.35 l 1.556,-0.253 a 0.46,0.46 0 0 0 0.301,-0.726 l -0.92,-1.28 a 17.5,17.5 0 0 0 0.115,-0.38 l 1.476,-0.552 a 0.46,0.46 0 0 0 0.153,-0.771 l -1.155,-1.077 c 0.014,-0.13 0.027,-0.261 0.039,-0.392 l 1.343,-0.831 a 0.462,0.462 0 0 0 0,-0.786 z m -8.991,11.144 a 0.952,0.952 0 0 1 0.399,-1.861 0.952,0.952 0 0 1 -0.4,1.861 z m -0.457,-3.087 a 0.866,0.866 0 0 0 -1.028,0.666 l -0.477,2.226 a 11.649,11.649 0 0 1 -4.828,1.04 c -1.76,0 -3.43,-0.39 -4.929,-1.087 l -0.477,-2.225 a 0.866,0.866 0 0 0 -1.028,-0.667 l -1.965,0.422 a 11.68,11.68 0 0 1 -1.016,-1.197 h 9.561 c 0.108,0 0.18,-0.02 0.18,-0.118 v -3.382 c 0,-0.099 -0.072,-0.118 -0.18,-0.118 H 21.35 v -2.145 h 3.024 c 0.276,0 1.476,0.079 1.86,1.613 0.12,0.471 0.384,2.006 0.564,2.497 0.18,0.551 0.912,1.652 1.692,1.652 h 4.764 a 0.977,0.977 0 0 0 0.173,-0.017 c -0.33,0.449 -0.693,0.874 -1.083,1.27 l -2.01,-0.431 z m -13.223,3.04 a 0.952,0.952 0 0 1 -0.399,-1.861 0.95203046,0.95203046 0 0 1 0.398,1.862 z m -3.627,-14.707 a 0.95021182,0.95021182 0 1 1 -1.737,0.771 0.95021182,0.95021182 0 1 1 1.737,-0.771 z m -1.115,2.643 2.047,-0.91 a 0.868,0.868 0 0 0 0.44,-1.145 l -0.421,-0.953 h 1.658 v 7.474 h -3.345 a 11.714,11.714 0 0 1 -0.38,-4.466 z m 8.983,-0.726 v -2.203 h 3.948 c 0.204,0 1.44,0.236 1.44,1.16 0,0.767 -0.948,1.043 -1.728,1.043 z m 14.349,1.983 c 0,0.292 -0.011,0.581 -0.033,0.868 h -1.2 c -0.12,0 -0.168,0.08 -0.168,0.197 v 0.551 c 0,1.298 -0.732,1.58 -1.373,1.652 -0.61,0.068 -1.288,-0.256 -1.371,-0.63 -0.36,-2.025 -0.96,-2.458 -1.908,-3.206 1.176,-0.746 2.4,-1.848 2.4,-3.323 0,-1.593 -1.092,-2.596 -1.836,-3.088 -1.044,-0.688 -2.2,-0.826 -2.512,-0.826 H 15.285 a 11.684,11.684 0 0 1 6.545,-3.694 l 1.463,1.535 c 0.331,0.346 0.88,0.36 1.225,0.028 l 1.638,-1.566 a 11.71,11.71 0 0 1 8.009,5.704 l -1.121,2.532 a 0.869,0.869 0 0 0 0.44,1.145 l 2.159,0.958 c 0.037,0.383 0.056,0.77 0.056,1.163 z m -12.406,-12.805 a 0.95,0.95 0 0 1 1.344,0.031 0.952,0.952 0 0 1 -0.032,1.346 0.949,0.949 0 0 1 -1.343,-0.032 0.953,0.953 0 0 1 0.031,-1.345 z m 11.123,8.951 a 0.95041478,0.95041478 0 1 1 1.737,0.772 0.95041478,0.95041478 0 1 1 -1.737,-0.772 z"
     fill="#595959"
     id="path2" />
</svg>
