<svg id="Camada_1" data-name="Camada 1" xmlns="http://www.w3.org/2000/svg" viewBox="0 0 680.31 226.77"><defs><style>.cls-1{isolation:isolate;}.cls-2{fill:#333;}.cls-3{fill:#ffd000;}</style></defs><g class="cls-1"><path class="cls-2" d="M247.67,90.06H219.31v18.72h25.15v11.88H219.31v19.79h28.36v12.2H204.33V77.86h43.34Z"/><path class="cls-2" d="M284.58,92.41c7.81,0,15.3,3.64,19.37,9.21V73.48h15.19v79.17H304v-8.77c-3.53,5.46-10.17,9.73-19.47,9.73-15.09,0-27.07-12.3-27.07-30.81S269.39,92.41,284.58,92.41Zm3.75,13.16c-8,0-15.62,6-15.62,17.23s7.59,17.65,15.62,17.65c8.24,0,15.73-6.2,15.73-17.44S296.57,105.57,288.33,105.57Z"/><path class="cls-2" d="M357,92.41c9.31,0,16.05,4.28,19.58,9.42V93.38h15.09v59.7c0,16-9.85,28.78-29.32,28.78-16.69,0-28.35-8.34-29.85-21.93h14.87c1.5,5.35,7.06,8.88,14.55,8.88,8.24,0,14.66-4.71,14.66-15.73v-9.2c-3.53,5.13-10.27,9.73-19.58,9.73-15.09,0-27.07-12.3-27.07-30.81S341.93,92.41,357,92.41Zm3.85,13.16c-8,0-15.62,6-15.62,17.23s7.6,17.65,15.62,17.65c8.24,0,15.73-6.2,15.73-17.44S369.11,105.57,360.87,105.57Z"/><path class="cls-2" d="M432.24,153.61c-17.22,0-29.74-12-29.74-30.6s12.19-30.6,29.74-30.6c17.12,0,29.21,11.67,29.21,29.32a35.15,35.15,0,0,1-.43,5.78H417.69c.75,8.77,6.74,13.69,14.23,13.69,6.42,0,9.95-3.21,11.88-7.17H460C456.74,145,446.9,153.61,432.24,153.61ZM417.8,117.45h28.14c-.22-7.81-6.42-12.73-14.13-12.73C424.64,104.72,419,109.32,417.8,117.45Z"/><path class="cls-2" d="M513.88,119.91c0-9.52-5.24-14.66-13.16-14.66-8.13,0-13.37,5.14-13.37,14.66v32.74h-15V93.38h15v7.38c3.85-5,10.27-8.24,17.86-8.24,13.81,0,23.65,9,23.65,25.36v34.77h-15Z"/><path class="cls-2" d="M588.89,138.42H559.14l-4.92,14.23H538.49l26.86-74.79h17.44l26.85,74.79H593.81ZM574,95.2l-10.8,31.24h21.61Z"/><path class="cls-2" d="M619.7,78h15v74.68h-15Z"/></g><path class="cls-3" d="M151.27,105.89l-37.78-.21a3.6,3.6,0,0,1-3.26-5.08L140,34.5a3.6,3.6,0,0,0-5.71-4.13L39.43,117a3.6,3.6,0,0,0,2.41,6.26l37.78.21a3.6,3.6,0,0,1,3.26,5.08l-29.81,66.1a3.6,3.6,0,0,0,5.71,4.14l94.9-86.64A3.6,3.6,0,0,0,151.27,105.89Z"/></svg>