<?xml version="1.0" encoding="UTF-8" standalone="no"?>
<svg
   width="105.06892"
   height="30"
   version="1.1"
   id="svg18"
   sodipodi:docname="EdgenAI_dark_colored.svg"
   inkscape:version="1.1.2 (0a00cf5339, 2022-02-04)"
   xmlns:inkscape="http://www.inkscape.org/namespaces/inkscape"
   xmlns:sodipodi="http://sodipodi.sourceforge.net/DTD/sodipodi-0.dtd"
   xmlns="http://www.w3.org/2000/svg"
   xmlns:svg="http://www.w3.org/2000/svg">
  <defs
     id="defs22" />
  <sodipodi:namedview
     id="namedview20"
     pagecolor="#ffffff"
     bordercolor="#666666"
     borderopacity="1.0"
     inkscape:pageshadow="2"
     inkscape:pageopacity="0.0"
     inkscape:pagecheckerboard="0"
     showgrid="false"
     inkscape:zoom="10.539235"
     inkscape:cx="57.594313"
     inkscape:cy="17.268806"
     inkscape:window-width="1920"
     inkscape:window-height="1001"
     inkscape:window-x="0"
     inkscape:window-y="0"
     inkscape:window-maximized="1"
     inkscape:current-layer="svg18" />
  <path
     className="fill-cl1 dark:fill-white"
     d="m 36.890167,10.679973 h -4.995865 v 3.297693 h 4.430393 v 2.092766 h -4.430393 v 3.486184 h 4.995865 v 2.149137 H 29.255443 V 8.5308357 h 7.634724 z"
     id="path2"
     style="stroke-width:0.926651" />
  <path
     className="fill-cl1 dark:fill-white"
     d="m 43.392187,11.093947 c 1.3758,0 2.695231,0.641217 3.412197,1.622422 V 7.75926 h 2.675853 V 21.705753 H 46.813191 V 20.16084 c -0.621841,0.961827 -1.791534,1.714027 -3.429811,1.714027 -2.658237,0 -4.768618,-2.166755 -4.768618,-5.427455 0,-3.260699 2.101574,-5.353465 4.777425,-5.353465 z m 0.660596,2.318249 c -1.409271,0 -2.751601,1.056953 -2.751601,3.035216 0,1.978264 1.337045,3.109204 2.751601,3.109204 1.451548,0 2.770978,-1.092185 2.770978,-3.07221 0,-1.980026 -1.31943,-3.07221 -2.770978,-3.07221 z"
     id="path4"
     style="stroke-width:0.926651" />
  <path
     className="fill-cl1 dark:fill-white"
     d="m 56.149608,11.093947 c 1.640039,0 2.82735,0.75396 3.449191,1.659415 V 11.26482 h 2.658236 v 10.516681 c 0,2.818543 -1.735164,5.069851 -5.164977,5.069851 -2.94009,0 -4.994102,-1.469164 -5.25834,-3.863164 h 2.619481 c 0.264238,0.94245 1.243681,1.564291 2.563111,1.564291 1.451549,0 2.582489,-0.829708 2.582489,-2.770978 V 20.16084 c -0.621841,0.903694 -1.809152,1.714027 -3.449191,1.714027 -2.658235,0 -4.768617,-2.166755 -4.768617,-5.427455 0,-3.260699 2.113904,-5.353465 4.768617,-5.353465 z m 0.678212,2.318249 c -1.40927,0 -2.751602,1.056953 -2.751602,3.035216 0,1.978264 1.338808,3.109204 2.751602,3.109204 1.451549,0 2.770979,-1.092185 2.770979,-3.07221 0,-1.980026 -1.315907,-3.07221 -2.767457,-3.07221 z"
     id="path6"
     style="stroke-width:0.926651" />
  <path
     className="fill-cl1 dark:fill-white"
     d="m 69.403797,21.874867 c -3.033454,0 -5.238961,-2.113908 -5.238961,-5.390461 0,-3.276553 2.147374,-5.390459 5.238961,-5.390459 3.015839,0 5.145599,2.055772 5.145599,5.164975 a 6.1919822,6.1919822 0 0 1 -0.07574,1.018198 H 66.84069 c 0.13212,1.544913 1.187313,2.411615 2.50674,2.411615 1.13094,0 1.75278,-0.56547 2.092767,-1.263059 h 2.853773 c -0.574278,1.932462 -2.30768,3.449191 -4.890168,3.449191 z m -2.543733,-6.369905 h 4.95711 c -0.03875,-1.3758 -1.130941,-2.242501 -2.489124,-2.242501 -1.26306,0 -2.256595,0.81033 -2.467986,2.242501 z"
     id="path8"
     style="stroke-width:0.926651" />
  <path
     className="fill-cl1 dark:fill-white"
     d="m 83.785402,15.938314 c 0,-1.677034 -0.923072,-2.58249 -2.318249,-2.58249 -1.432171,0 -2.355243,0.905456 -2.355243,2.58249 v 5.767439 H 76.469527 V 11.26482 h 2.642383 v 1.300053 c 0.678212,-0.880795 1.80915,-1.45155 3.146196,-1.45155 2.432754,0 4.166156,1.58543 4.166156,4.467388 v 6.125042 H 83.78188 Z"
     id="path10"
     style="stroke-width:0.926651" />
  <path
     className="fill-cl1 dark:fill-white"
     d="m 96.999076,19.199013 h -5.240725 l -0.866703,2.50674 H 88.12067 L 92.852292,8.5308357 h 3.072214 l 4.729864,13.1749173 h -2.788599 z m -2.62301,-7.613584 -1.90251,5.503201 h 3.806794 z"
     id="path12"
     style="stroke-width:0.926651" />
  <path
     className="fill-cl1 dark:fill-white"
     d="m 102.42653,8.5554981 h 2.64239 V 21.711038 h -2.64239 z"
     id="path14"
     style="stroke-width:0.926651" />
  <path
     className="fill-cl2"
     d="m 19.908456,13.468567 -6.655279,-0.03699 a 0.63417172,0.63417172 0 0 1 -0.574278,-0.89489 L 17.923147,0.89258972 A 0.63417172,0.63417172 0 0 0 16.91728,0.16505382 L 0.20685567,15.425692 a 0.63417172,0.63417172 0 0 0 0.42454272,1.102754 l 6.65527991,0.037 a 0.63417172,0.63417172 0 0 1 0.5742776,0.894883 L 2.6096618,29.104423 a 0.63417172,0.63417172 0 0 0 1.0058669,0.729298 L 20.333,14.571321 a 0.63417172,0.63417172 0 0 0 -0.424544,-1.102754 z"
     id="path16"
     style="stroke-width:0.926651" />
</svg>
